@startuml
'https://plantuml.com/class-diagram

interface Iterator {
hasNext(): boolean
next(): E
remove(): void
}

class ConcreteIterator {
}

interface Aggregate {
createIterator(): Iterator
}

class ConcreteAggregate {
elements: List
createIterator() : Iterator
}

Iterator <|-- ConcreteIterator
Aggregate <|-- ConcreteAggregate
ConcreteAggregate ..> ConcreteIterator



@enduml